<svg xmlns="http://www.w3.org/2000/svg" viewBox="0 0 1600 900">
  <rect width="1600" height="900" rx="36" fill="#1a1713"/>
  <rect x="60" y="60" width="360" height="780" rx="26" fill="#24201b"/><rect x="450" y="60" width="1090" height="780" rx="26" fill="#fffdf8"/>
  <text x="110" y="132" fill="#fff" font-family="Georgia" font-size="34">Drafts</text><g fill="#81776a"><rect x="110" y="188" width="232" height="14" rx="7"/><rect x="110" y="238" width="184" height="14" rx="7"/><rect x="110" y="288" width="214" height="14" rx="7"/></g>
  <text x="530" y="146" fill="#de1d8d" font-family="Arial" font-size="18" letter-spacing="4">IN REVIEW</text><text x="530" y="236" fill="#211b15" font-family="Georgia" font-size="62" font-weight="700">A clear reading path</text>
  <g fill="#a89e90"><rect x="530" y="304" width="820" height="16" rx="8"/><rect x="530" y="350" width="900" height="16" rx="8"/><rect x="530" y="396" width="760" height="16" rx="8"/><rect x="530" y="474" width="880" height="16" rx="8"/><rect x="530" y="520" width="710" height="16" rx="8"/></g>
  <rect x="530" y="620" width="900" height="130" rx="18" fill="#f5eee2"/><rect x="570" y="658" width="580" height="14" rx="7" fill="#8e8273"/><rect x="570" y="700" width="710" height="14" rx="7" fill="#b7ab9b"/>
</svg>
